/* XPM */
static char *arrow[] = {
/* columns rows colors chars-per-pixel */
"16 16 14 1",
"  c #1C1C1B",
". c #1D1D1B",
"X c #1E1E1B",
"o c #1D1D1C",
"O c #1E1E1C",
"+ c #1F1F1D",
"@ c #20201D",
"# c #20201E",
"$ c #21211E",
"% c #21211F",
"& c #22221F",
"* c #222220",
"= c #232320",
"- c None",
/* pixels */
"----------------",
"----------------",
"-.+-------------",
"--$$------------",
"---..-----------",
"----..----------",
"-----..---------",
"------.$--------",
"-------$$-------",
"--------.+---.+-",
"---------..- +$-",
"----------...$=-",
"----------..+==-",
"---------..+$++-",
"--------..+$+.+-",
"----------------"
};
