/* XPM */
static char *full_screen[] = {
/* columns rows colors chars-per-pixel */
"16 16 12 1",
"  c #256FBB",
". c #3180C8",
"X c #3787CF",
"o c #3887CF",
"O c #3E90D6",
"+ c #4599DE",
"@ c #4599DF",
"# c #4DA3E7",
"$ c #55ADF1",
"% c #55AEF1",
"& c #5BB6F9",
"* c None",
/* pixels */
"****************",
"*     ****     *",
"* &% ****** %& *",
"* %#+ **** +#% *",
"*  +OX ** oO@  *",
"* * o. ** .X * *",
"****  ****  ****",
"****************",
"****************",
"****  ****  ****",
"* * X. ** .o * *",
"*  @Oo ** XO+  *",
"* %#+ **** @#% *",
"* &% ****** %& *",
"*     ****     *",
"****************"
};
