/* XPM */
static char *text[] = {
/* columns rows colors chars-per-pixel */
"16 16 31 1",
"  c #0C0C0C",
". c #1B1B1B",
"X c #383838",
"o c #444444",
"O c #474747",
"+ c #484848",
"@ c #505050",
"# c #565656",
"$ c #646464",
"% c #666666",
"& c #848484",
"* c #858585",
"= c #9A9999",
"- c #9B9B9B",
"; c #AEAEAE",
": c #B5B4B4",
"> c #B6B5B5",
", c #BCBCBC",
"< c #C1C1C1",
"1 c #C4C4C4",
"2 c #CBCBCB",
"3 c #D1D1D1",
"4 c #D8D8D8",
"5 c #DFDFDF",
"6 c #E2E2E2",
"7 c #E6E6E6",
"8 c #EAEAEA",
"9 c #EFEFEF",
"0 c #F2F2F2",
"q c #F4F2F2",
"w c None",
/* pixels */
"w* .++  ++. &www",
"w%X0ww  ww0X$www",
"wO-www  www-Owww",
"w26www  8ww6<www",
"wwwwww  7wwwwwww",
"wwwwww  9wwwwwww",
"wwwwww  9wwwwwww",
"wwwwww  9wwwwwww",
"wwwwww  9wwwwwww",
"wwwwww  9wwwwwww",
"wwwwww  9wwwwwww",
"wwwwww  4wwwwwww",
"wwww<#  @>wwwwww",
"wwww5,>;;3wwwwww",
"wwwwwwwqqwwwwwww",
"wwwwwwwwwwwwwwww"
};
