/* XPM */
static char *text_arrow[] = {
/* columns rows colors chars-per-pixel */
"16 16 59 1",
"  c #0C0C0C",
". c #0F0F0F",
"X c #10100F",
"o c #111111",
"O c #121212",
"+ c #131312",
"@ c #1A1A18",
"# c #1B1B1B",
"$ c #1C1C1A",
"% c #1C1C1B",
"& c #1D1D1B",
"* c #1E1E1B",
"= c #1D1D1C",
"- c #1E1E1C",
"; c #1F1F1C",
": c #1F1F1D",
"> c #20201D",
", c #20201E",
"< c #21211E",
"1 c #21211F",
"2 c #222220",
"3 c #232320",
"4 c #272725",
"5 c #2A2A29",
"6 c #2E2E2C",
"7 c #31312F",
"8 c #323231",
"9 c #333332",
"0 c #383838",
"q c #393938",
"w c #444443",
"e c #484848",
"r c #505050",
"t c #555555",
"y c #5C5C5B",
"u c #636363",
"i c #848484",
"p c #858585",
"a c #999898",
"s c #9C9C9B",
"d c #A2A2A1",
"f c #A7A6A6",
"g c #AEAEAE",
"h c #B4B4B3",
"j c #B4B4B4",
"k c #B5B4B4",
"l c #BCBCBC",
"z c #C8C8C8",
"x c #CDCBCB",
"c c #D1D1D1",
"v c #D6D6D6",
"b c #D8D8D8",
"n c #DDDDDD",
"m c #E6E6E6",
"M c #E8E8E8",
"N c #EAEAEA",
"B c #ECECEC",
"V c #F2F2F2",
"C c None",
/* pixels */
"Cp #ee  ee# pCCC",
"Cy9MCC  CCVquCCC",
"C44CCC  CCCawCCC",
"Chq<CC  BCCcjCCC",
"CCC&&C  mCCCCCCC",
"CCCC&&  BCCCCCCC",
"CCCCC&&XvCCCCCCC",
"CCCCCC@-dCCCCCCC",
"CCCCCCo<5CCCCCCC",
"CCCCCCoo7&CCC&-C",
"CCCCCCo z&&C&&2C",
"CCCCCC  bC&&&<2C",
"CCCCht  ef--<22C",
"CCCCnljgs9&<<--C",
"CCCCCCCx9--<---C",
"CCCCCCCCCCCCCCCC"
};
